# xmcd CD database file
#
# Track frame offsets:
#	150
#	13930
#	23092
#	45000
#	91092
#	109390
#	128350
#	140727
#	157800
#	172595
#
# Disc length: 3111 seconds
#
# Revision: 0
# Processed by: cddbd v1.5.1PL0 Copyright (c) Steve Scherf et al.
# Submitted via: CDex 1.51
#
DISCID=670c250a
DTITLE=タブラトゥーラ - TABLATURA
DYEAR=1900
DGENRE=New Age
TTITLE0=悲しみはつのりて
TTITLE1=讃歌
TTITLE2=冬の終わりに
TTITLE3=シャンソネッタ・テデスカ
TTITLE4=バラータ
TTITLE5=レディ・ケアリー
TTITLE6=カリヨン
TTITLE7=サルタレロ
TTITLE8=2つのエスタンピー
TTITLE9=トリスタンの悲しみとロッタ
EXTD=
EXTT0=
EXTT1=
EXTT2=
EXTT3=
EXTT4=
EXTT5=
EXTT6=
EXTT7=
EXTT8=
EXTT9=
PLAYORDER=
